<svg width="17" height="14" viewBox="0 0 17 14" fill="none" xmlns="http://www.w3.org/2000/svg">
<path d="M10.6667 3.66667L11.6667 4.66667L6 10.3333L5 9.33333L10.6667 3.66667ZM1.66667 0.333332H15C15.925 0.333332 16.6667 1.075 16.6667 2V5.33333C16.2246 5.33333 15.8007 5.50893 15.4882 5.82149C15.1756 6.13405 15 6.55797 15 7C15 7.44203 15.1756 7.86595 15.4882 8.17851C15.8007 8.49107 16.2246 8.66667 16.6667 8.66667V12C16.6667 12.925 15.925 13.6667 15 13.6667H1.66667C1.22464 13.6667 0.800716 13.4911 0.488155 13.1785C0.175595 12.8659 0 12.442 0 12V8.66667C0.925 8.66667 1.66667 7.925 1.66667 7C1.66667 6.55797 1.49107 6.13405 1.17851 5.82149C0.865951 5.50893 0.442028 5.33333 0 5.33333V2C0 1.55797 0.175595 1.13405 0.488155 0.821487C0.800716 0.508927 1.22464 0.333332 1.66667 0.333332ZM1.66667 2V4.11667C2.17307 4.40866 2.59363 4.82888 2.88605 5.33504C3.17846 5.8412 3.33241 6.41544 3.33241 7C3.33241 7.58455 3.17846 8.1588 2.88605 8.66496C2.59363 9.17111 2.17307 9.59133 1.66667 9.88333V12H15V9.88333C14.4936 9.59133 14.073 9.17111 13.7806 8.66496C13.4882 8.1588 13.3343 7.58455 13.3343 7C13.3343 6.41544 13.4882 5.8412 13.7806 5.33504C14.073 4.82888 14.4936 4.40866 15 4.11667V2H1.66667ZM6.25 3.66667C6.94167 3.66667 7.5 4.225 7.5 4.91667C7.5 5.60833 6.94167 6.16667 6.25 6.16667C5.55833 6.16667 5 5.60833 5 4.91667C5 4.225 5.55833 3.66667 6.25 3.66667ZM10.4167 7.83333C11.1083 7.83333 11.6667 8.39167 11.6667 9.08333C11.6667 9.775 11.1083 10.3333 10.4167 10.3333C9.725 10.3333 9.16667 9.775 9.16667 9.08333C9.16667 8.39167 9.725 7.83333 10.4167 7.83333Z" fill="white"/>
</svg>
